# xmcd
#
# Track frame offsets:
#	157
#	18266
#	37863
#	61338
#	75592
#	97094
#	114763
#	125163
#	141932
#	157380
#	167575
#	189905
#
# Disc length: 2744 seconds
#
# Revision: 1
# Processed by: cddbd v1.5.2PL0 Copyright (c) Steve Scherf et al.
# Submitted via: dBpowerAMP V4.0
#
DISCID=980ab60c
DTITLE=Noam Pikelny - Beat The Devil and Carry A Rail
DYEAR=2011
DGENRE=Bluegrass
TTITLE0=Jim Thompson's Horse
TTITLE1=My Mother Thinks I'm a Lawyer
TTITLE2=Fish and Bird (feat. Aoife O'Donovan)
TTITLE3=Cluck Old Hen (feat. Steve Martin)
TTITLE4=Boathouse on the Lullwater (feat. Jerry Douglas)
TTITLE5=Bear Dog Grit (feat. Chris Tile and Bryan Sutton)
TTITLE6=Day Down
TTITLE7=Milford's Reel
TTITLE8=Bob McKinney (feat. Tim O'Brien)
TTITLE9=Pineywoods
TTITLE10=The Broken Drought
TTITLE11=All Git Out
EXTD=
EXTT0=
EXTT1=
EXTT2=
EXTT3=
EXTT4=
EXTT5=
EXTT6=
EXTT7=
EXTT8=
EXTT9=
EXTT10=
EXTT11=
PLAYORDER=
